<?xml version="1.0" standalone="no"?>
<!DOCTYPE svg PUBLIC "-//W3C//DTD SVG 20010904//EN"
 "http://www.w3.org/TR/2001/REC-SVG-20010904/DTD/svg10.dtd">
<svg version="1.0" xmlns="http://www.w3.org/2000/svg"
 width="2000.000000pt" height="1125.000000pt" viewBox="0 0 2000.000000 1125.000000"
 preserveAspectRatio="xMidYMid meet">

<g transform="translate(0.000000,1125.000000) scale(0.100000,-0.100000)"
fill="#000000" stroke="none">
<path d="M4950 9379 c-90 -11 -185 -26 -260 -40 -51 -10 -73 -15 -190 -40
-278 -62 -582 -187 -862 -355 -50 -30 -94 -54 -98 -54 -5 0 -10 -4 -12 -8 -1
-5 -37 -31 -78 -59 -107 -73 -258 -200 -386 -328 -122 -122 -175 -183 -279
-321 -107 -143 -128 -174 -170 -244 -67 -114 -77 -133 -140 -255 -125 -241
-224 -545 -264 -810 -18 -119 -21 -145 -31 -310 -18 -264 2 -570 50 -790 4
-22 14 -67 21 -100 21 -103 58 -235 119 -425 4 -14 35 -93 68 -176 96 -240
177 -408 298 -617 19 -32 34 -60 34 -61 0 -16 307 -501 389 -615 471 -656
1020 -1266 1743 -1937 190 -177 235 -213 273 -224 84 -24 168 0 241 67 214
195 308 285 554 532 278 278 424 429 505 521 66 75 66 75 124 45 101 -51 139
-55 492 -55 299 0 332 2 392 20 161 50 285 186 302 334 3 28 7 143 8 256 l2
205 58 75 c67 88 137 224 168 330 22 72 23 94 28 610 l6 535 53 160 c29 88 57
176 62 195 53 192 63 234 81 324 27 131 59 461 59 606 0 101 -18 313 -39 470
-15 107 -49 249 -91 380 -10 30 -29 91 -43 135 -66 214 -222 524 -355 710
-164 228 -409 490 -600 644 -88 70 -241 180 -300 216 -303 183 -610 314 -867
369 -16 4 -48 11 -70 17 -73 17 -242 46 -360 60 -111 14 -544 19 -635 8z m630
-414 c154 -18 403 -73 475 -105 11 -5 49 -19 85 -31 222 -75 516 -240 764
-428 84 -64 352 -331 432 -431 296 -372 490 -842 543 -1322 23 -209 0 -726
-32 -715 -6 2 -27 31 -47 64 -70 114 -119 167 -428 464 -63 60 -111 113 -108
118 4 5 23 15 44 22 161 52 336 188 397 309 56 110 28 230 -68 302 -109 80
-242 117 -452 125 -127 5 -145 3 -198 -17 -101 -38 -162 -122 -174 -236 -4
-41 -10 -54 -22 -54 -17 1 -143 116 -525 482 -130 126 -264 246 -298 269 -83
57 -209 113 -336 151 l-107 32 -1183 4 -1182 3 16 28 c38 64 310 330 431 421
128 97 199 144 328 217 289 163 640 288 925 328 135 18 562 19 720 0z m-20
-1441 c84 -33 131 -56 180 -88 50 -33 90 -71 625 -581 385 -368 381 -363 369
-374 -7 -8 -624 -10 -2070 -9 l-2059 3 1 80 c2 146 34 336 88 514 66 218 148
424 183 464 16 17 82 17 1322 15 1305 -3 1306 -3 1361 -24z m1796 -1705 c88
-16 161 -56 232 -126 187 -184 183 -477 -10 -662 -23 -23 -74 -57 -113 -76
-89 -42 -207 -55 -495 -55 -422 1 -669 48 -734 142 -22 31 -20 101 3 147 74
144 348 355 676 518 86 44 235 101 300 116 36 8 80 7 141 -4z m-1517 -593 c24
-29 -12 -258 -59 -376 -60 -152 -171 -284 -288 -342 l-67 -33 -1098 -3 c-704
-2 -1104 1 -1116 7 -10 6 -35 41 -55 78 -20 37 -48 88 -62 113 -85 145 -268
536 -260 555 8 22 2987 23 3005 1z m1590 -885 c10 -6 33 -43 51 -83 63 -136
42 -261 -61 -373 -47 -51 -121 -96 -244 -151 l-90 -39 -530 -3 c-308 -1 -536
2 -544 7 -14 9 19 49 299 362 52 58 124 139 160 179 36 41 73 82 83 92 16 17
47 18 438 18 244 0 428 -4 438 -9z m-1740 -190 c13 -8 13 -20 2 -77 -29 -159
-141 -292 -302 -356 -54 -22 -60 -22 -828 -26 -557 -2 -781 0 -801 8 -15 6
-40 29 -56 51 -16 22 -42 58 -59 79 -84 108 -215 297 -215 310 0 6 252 11 728
13 400 1 905 3 1122 4 224 2 401 -1 409 -6z m661 -919 c0 -4 -12 -21 -27 -37
-15 -17 -47 -52 -72 -80 -230 -256 -888 -924 -973 -989 -46 -35 -35 -42 -226
147 -453 448 -912 930 -912 957 0 6 403 10 1105 10 608 0 1105 -3 1105 -8z"/>
<path d="M9460 6565 c-216 -48 -443 -248 -509 -447 -11 -35 -126 -457 -256
-938 -130 -481 -240 -887 -245 -902 l-9 -28 169 0 169 0 15 53 c9 28 67 246
131 482 64 237 118 438 121 448 5 16 26 17 255 17 137 0 249 -3 249 -7 -1 -5
-60 -228 -133 -498 l-133 -490 164 -3 c91 -1 167 -1 169 2 2 2 116 419 254
927 162 599 252 949 256 994 14 168 -78 315 -237 377 -46 18 -79 22 -210 24
-108 3 -175 -1 -220 -11z m258 -334 c33 -18 62 -70 62 -111 -1 -19 -32 -147
-69 -285 l-68 -250 -252 -3 c-237 -2 -252 -1 -247 15 3 10 35 128 71 263 36
135 73 256 82 269 34 52 95 96 158 112 44 12 236 5 263 -10z"/>
<path d="M9400 6168 c-18 -13 -42 -35 -52 -49 -16 -22 -138 -441 -138 -476 0
-7 10 -13 23 -13 20 0 26 16 81 223 59 220 80 279 112 311 26 26 10 28 -26 4z"/>
<path d="M9500 6168 c-18 -13 -41 -34 -52 -48 -15 -21 -138 -447 -138 -479 0
-6 10 -11 23 -11 21 0 26 15 81 223 62 231 75 267 109 304 29 32 16 37 -23 11z"/>
<path d="M13560 5418 l-315 -1163 164 -3 c90 -1 166 0 169 3 3 2 60 211 128
462 68 252 129 475 134 496 l11 37 174 0 c95 0 185 -4 199 -10 53 -20 77 -119
57 -236 -7 -38 -52 -219 -101 -402 -50 -183 -90 -337 -90 -343 0 -6 63 -8 166
-7 l166 3 100 365 c111 411 123 487 94 600 -23 91 -56 134 -128 169 l-59 28
35 6 c20 3 66 21 103 39 81 39 199 151 231 218 12 25 44 128 73 230 81 289 78
392 -14 516 -28 37 -64 71 -98 91 -99 59 -134 63 -529 63 l-355 0 -315 -1162z
m957 809 c40 -21 63 -63 63 -114 0 -20 -23 -120 -51 -220 -47 -167 -55 -187
-92 -229 -68 -77 -92 -84 -310 -84 -175 0 -188 1 -183 18 3 9 37 136 76 282
39 146 78 289 86 318 l15 54 182 -4 c151 -2 188 -6 214 -21z"/>
<path d="M14155 6188 c-13 -39 -145 -535 -145 -546 0 -8 9 -12 23 -10 20 3 29
27 98 280 42 153 74 280 71 283 -10 10 -43 5 -47 -7z"/>
<path d="M14247 6148 c-49 -168 -137 -496 -137 -506 0 -7 10 -12 23 -12 21 0
27 18 96 273 40 149 74 276 75 282 0 5 -9 11 -21 13 -18 3 -23 -5 -36 -50z"/>
<path d="M14889 6475 c69 -75 109 -203 96 -303 -12 -85 -117 -456 -143 -506
-33 -60 -91 -127 -155 -177 -63 -50 -47 -50 29 -1 75 49 161 143 189 207 12
28 46 137 75 244 48 179 52 200 48 281 -5 106 -36 177 -109 251 -62 62 -86 65
-30 4z"/>
<path d="M14983 6483 c73 -72 115 -204 102 -312 -12 -93 -115 -452 -148 -514
-19 -36 -59 -85 -105 -128 -41 -38 -71 -69 -67 -69 4 0 31 16 61 36 62 41 147
131 173 183 24 47 119 387 129 460 17 128 -21 245 -107 331 -27 27 -56 50 -62
50 -7 0 4 -17 24 -37z"/>
<path d="M10087 6478 c18 -18 45 -60 60 -93 26 -55 28 -70 27 -170 l0 -110
-247 -910 c-136 -500 -250 -918 -253 -927 -4 -14 0 -18 20 -18 22 0 27 7 40
53 8 28 122 446 253 927 229 847 237 878 237 970 1 84 -2 102 -27 155 -26 57
-110 155 -131 155 -5 0 4 -15 21 -32z"/>
<path d="M10183 6490 c84 -121 100 -169 94 -290 -4 -85 -29 -187 -251 -1004
-135 -500 -249 -918 -252 -929 -5 -15 -1 -18 21 -15 l28 3 250 920 c248 914
249 921 251 1025 1 100 0 108 -31 165 -33 60 -58 93 -103 130 l-24 20 17 -25z"/>
<path d="M10460 6158 c-7 -24 -87 -322 -180 -663 -257 -947 -243 -890 -237
-965 3 -36 13 -82 22 -103 22 -54 90 -124 150 -155 46 -25 61 -27 202 -30 88
-2 174 1 205 7 165 35 341 177 414 336 17 37 378 1340 439 1588 l7 27 -155 0
-155 0 -22 -82 c-12 -46 -89 -328 -170 -628 -81 -300 -165 -608 -185 -685 -41
-153 -51 -179 -87 -211 -47 -44 -82 -54 -182 -54 -52 0 -106 5 -119 11 -25 11
-47 47 -47 76 0 13 93 359 418 1556 4 16 -8 17 -151 17 l-156 0 -11 -42z"/>
<path d="M11526 6148 c-8 -29 -26 -93 -41 -143 -14 -49 -25 -93 -25 -97 0 -4
78 -9 173 -10 l173 -3 -217 -805 c-120 -443 -220 -815 -224 -827 l-5 -23 154
0 c152 0 155 0 162 23 4 12 105 384 224 827 l217 805 176 3 c157 2 176 4 181
20 17 58 76 273 76 277 0 3 -227 5 -505 5 l-504 0 -15 -52z"/>
<path d="M12935 6193 c-94 -23 -228 -106 -303 -189 -100 -109 -107 -129 -284
-771 -152 -554 -161 -593 -161 -678 0 -64 5 -101 17 -128 24 -55 92 -125 151
-155 46 -25 61 -27 202 -30 88 -2 174 1 205 7 165 35 341 177 414 336 19 41
244 848 323 1162 41 161 22 262 -69 354 -83 85 -130 99 -323 98 -84 -1 -161
-4 -172 -6z m241 -326 c14 -16 24 -41 24 -58 0 -17 -54 -227 -119 -467 -66
-241 -136 -497 -156 -571 -19 -74 -44 -146 -55 -162 -36 -49 -94 -69 -203 -69
-53 0 -107 5 -120 11 -25 11 -47 47 -47 76 0 20 309 1162 320 1182 14 26 53
59 90 76 26 11 62 14 138 13 100 -3 105 -4 128 -31z"/>
<path d="M15087 5398 c-120 -442 -239 -883 -266 -980 l-48 -178 507 0 506 0
37 144 c20 79 37 147 37 150 0 3 -155 6 -345 6 -270 0 -345 3 -345 13 1 6 31
125 68 262 l68 250 281 3 c257 2 282 4 287 20 16 53 76 271 76 276 0 3 -126 6
-280 6 -154 0 -280 2 -280 4 0 3 32 119 70 260 39 140 70 257 70 260 0 3 159
7 352 8 l352 3 42 148 41 147 -506 0 -507 0 -217 -802z"/>
<path d="M16162 5227 c-144 -534 -262 -975 -262 -979 0 -5 69 -8 153 -8 l153
0 143 528 c78 290 146 536 151 547 8 19 9 19 9 -2 1 -12 21 -252 46 -533 25
-281 45 -518 45 -526 0 -11 28 -14 155 -14 85 0 155 2 155 4 0 5 517 1910 526
1939 5 16 -5 17 -152 15 l-158 -3 -146 -537 c-81 -296 -150 -541 -153 -545 -4
-3 -7 2 -7 13 0 34 -81 1028 -86 1052 -4 22 -7 22 -157 22 l-152 0 -263 -973z"/>
<path d="M17545 6188 c-11 -34 -75 -269 -75 -278 0 -6 63 -10 170 -10 116 0
170 -3 170 -11 0 -6 -99 -377 -220 -825 -121 -448 -220 -817 -220 -819 0 -3
70 -5 155 -5 152 0 155 0 160 23 3 12 104 384 223 827 l218 805 175 3 176 2
38 138 c21 75 40 143 43 150 3 9 -101 12 -502 12 -396 0 -508 -3 -511 -12z"/>
<path d="M14639 5318 l36 -71 -1 -131 -1 -131 -100 -365 c-93 -341 -99 -365
-80 -368 10 -2 23 0 27 5 4 4 52 172 106 373 109 408 123 499 90 601 -20 61
-59 122 -91 143 -20 13 -19 8 14 -56z"/>
<path d="M14700 5387 c0 -3 11 -23 25 -43 37 -54 55 -127 55 -220 0 -103 -8
-140 -118 -547 l-89 -328 26 3 c25 3 28 13 124 363 l99 360 2 126 c1 121 0
127 -29 183 -16 33 -45 70 -62 84 -18 13 -33 22 -33 19z"/>
<path d="M9087 5193 c-3 -5 -60 -212 -127 -462 -67 -250 -124 -461 -127 -468
-4 -11 1 -14 22 -11 l28 3 123 455 c68 250 123 463 123 473 1 17 -33 25 -42
10z"/>
<path d="M9185 5188 c-3 -7 -59 -215 -125 -463 -66 -247 -123 -456 -125 -463
-3 -9 3 -12 22 -10 27 3 28 7 124 363 53 198 110 411 127 473 l30 112 -24 0
c-14 0 -27 -6 -29 -12z"/>
<path d="M13887 5193 c-3 -5 -59 -210 -126 -458 -67 -247 -124 -458 -127 -467
-4 -14 0 -18 20 -18 19 0 27 7 35 33 20 62 241 893 241 905 0 13 -36 17 -43 5z"/>
<path d="M13987 5193 c-3 -5 -59 -211 -126 -460 -66 -248 -124 -459 -127 -468
-6 -13 -1 -16 21 -13 l28 3 123 455 c68 250 123 463 123 473 1 17 -33 25 -42
10z"/>
</g>
</svg>
