<?xml version="1.0" standalone="no"?>
<!DOCTYPE svg PUBLIC "-//W3C//DTD SVG 20010904//EN"
 "http://www.w3.org/TR/2001/REC-SVG-20010904/DTD/svg10.dtd">
<svg version="1.0" xmlns="http://www.w3.org/2000/svg"
 width="1280.000000pt" height="1280.000000pt" viewBox="0 0 1280.000000 1280.000000"
 preserveAspectRatio="xMidYMid meet">

<g transform="translate(0.000000,1280.000000) scale(0.100000,-0.100000)"
fill="#000000" stroke="none">
<path d="M6100 11369 c-25 -4 -65 -8 -90 -8 -58 -1 -186 -23 -445 -77 -393
-82 -759 -223 -1125 -434 -230 -133 -368 -230 -570 -399 -153 -129 -428 -415
-544 -565 -173 -224 -266 -365 -374 -566 -25 -47 -54 -98 -64 -115 -10 -16
-22 -39 -27 -50 -5 -11 -24 -54 -44 -95 -19 -41 -49 -111 -67 -155 -17 -44
-36 -89 -41 -100 -8 -18 -65 -189 -102 -310 -33 -107 -91 -399 -108 -545 -29
-244 -37 -621 -19 -830 16 -177 28 -276 39 -331 6 -30 20 -103 32 -164 34
-177 36 -186 59 -270 90 -329 119 -412 250 -730 82 -198 209 -467 265 -563 6
-9 35 -62 65 -117 61 -114 174 -304 313 -530 73 -118 306 -465 397 -589 95
-130 361 -470 380 -486 3 -3 27 -32 53 -65 25 -33 70 -88 99 -122 29 -34 98
-115 153 -180 55 -65 107 -125 117 -133 9 -8 33 -35 54 -60 37 -46 55 -66 268
-295 312 -336 604 -627 976 -975 85 -79 169 -158 185 -175 101 -103 210 -137
315 -98 58 21 108 58 195 141 39 38 148 142 244 232 290 274 851 849 1065
1093 43 48 82 87 87 87 5 0 33 -13 62 -30 29 -16 84 -39 122 -52 69 -23 78
-23 510 -23 486 0 476 -1 614 68 86 43 185 143 234 235 54 102 67 203 67 516
l0 248 70 92 c79 104 167 269 198 373 56 183 54 160 61 893 l7 685 43 120 c43
122 127 402 141 465 4 19 12 53 18 75 10 37 32 141 52 245 12 61 39 261 46
335 12 140 16 634 5 730 -34 296 -44 371 -66 470 -9 39 -20 90 -25 115 -6 25
-14 56 -19 70 -5 14 -17 52 -26 85 -17 61 -48 159 -93 295 -47 147 -169 413
-272 595 -227 404 -604 838 -995 1145 -132 104 -311 233 -336 242 -8 3 -42 23
-75 44 -211 137 -622 321 -859 384 -44 12 -125 33 -180 46 -55 13 -116 28
-135 33 -43 12 -147 31 -220 41 -142 20 -223 30 -315 40 -114 12 -557 12 -625
-1z m765 -544 c187 -23 532 -104 605 -142 14 -7 30 -13 35 -13 23 0 256 -95
355 -145 211 -106 536 -307 635 -393 13 -11 36 -29 52 -39 72 -46 439 -410
518 -513 27 -36 58 -74 68 -85 34 -38 185 -270 256 -397 156 -274 271 -571
344 -883 53 -228 61 -286 77 -530 11 -173 5 -536 -10 -625 -5 -30 -12 -86 -16
-123 -4 -45 -10 -67 -17 -65 -7 2 -31 33 -54 69 -112 175 -162 229 -567 628
-75 74 -135 140 -133 145 2 6 35 23 74 37 219 81 414 237 493 394 31 62 35 79
35 150 0 97 -23 151 -94 220 -45 44 -210 135 -245 135 -10 0 -25 4 -35 9 -10
6 -76 20 -147 31 -101 17 -158 21 -259 18 -126 -4 -133 -6 -207 -41 -58 -28
-86 -49 -112 -83 -44 -57 -76 -140 -84 -219 -6 -53 -10 -60 -29 -60 -15 0
-133 108 -390 356 -555 536 -569 550 -645 607 -39 29 -121 77 -182 106 -123
58 -138 64 -246 96 -41 12 -88 27 -105 33 -22 9 -434 13 -1553 15 -1697 3
-1558 -4 -1507 73 39 60 400 417 496 491 153 118 206 156 305 219 289 182 505
287 798 385 278 94 483 139 696 154 180 13 646 4 795 -15z m-63 -1873 c103
-35 191 -77 260 -123 61 -41 133 -109 548 -514 165 -160 601 -582 701 -678 64
-62 280 -57 -2628 -55 l-2658 3 -3 75 c-2 41 2 100 8 129 7 30 16 89 21 130
17 150 26 207 37 228 7 12 12 32 12 44 0 23 27 123 40 149 4 9 11 31 15 50 15
77 92 294 145 415 10 22 28 64 40 93 13 29 32 60 44 68 18 13 230 14 1686 12
l1665 -3 67 -23z m2368 -2234 c91 -22 181 -77 260 -157 105 -107 144 -187 170
-349 35 -217 -69 -450 -258 -576 -88 -58 -134 -74 -267 -91 -152 -20 -687 -20
-895 0 -249 24 -429 84 -484 161 -24 34 -31 98 -17 150 20 76 105 184 222 284
35 30 66 57 69 60 13 15 103 83 175 132 266 181 572 334 780 389 74 20 157 19
245 -3z m-1996 -754 c40 -15 8 -282 -55 -466 -92 -267 -282 -472 -480 -517
-29 -7 -532 -11 -1429 -11 -1213 0 -1388 2 -1407 15 -17 12 -103 146 -103 161
0 2 -11 21 -23 42 -40 62 -206 396 -285 572 -11 25 -34 76 -51 114 -24 53 -28
72 -20 82 10 12 327 14 1924 14 1053 0 1920 -3 1929 -6z m2035 -1160 c28 -6
37 -17 72 -89 95 -197 68 -375 -79 -521 -74 -73 -163 -127 -317 -190 l-120
-49 -670 -3 c-585 -2 -673 -1 -690 13 -13 9 -16 17 -10 22 12 9 452 511 600
684 55 65 109 122 120 128 22 11 1040 15 1094 5z m-2227 -250 c27 -8 29 -31 8
-121 -52 -220 -197 -381 -415 -456 -59 -20 -78 -21 -1040 -25 -686 -2 -991 0
-1017 7 -29 9 -49 29 -104 104 -77 103 -210 289 -236 327 -10 14 -36 52 -58
84 -22 33 -37 63 -33 67 5 5 80 10 168 11 308 6 2710 7 2727 2z m848 -1209 c0
-19 -119 -152 -511 -575 -166 -179 -810 -825 -862 -864 -34 -26 -40 -28 -62
-16 -26 14 -810 797 -875 875 -24 28 -102 113 -174 190 -73 77 -163 176 -201
220 -38 44 -86 98 -107 120 -21 22 -38 46 -38 53 0 9 290 12 1415 12 1230 0
1415 -2 1415 -15z"/>
</g>
</svg>
